<?xml version="1.0" encoding="UTF-8"?>
<svg id="a" data-name="logo" xmlns="http://www.w3.org/2000/svg" width="164" height="164" viewBox="0 0 164 164">
  <defs>
    <style>
      .b {
        fill: #cf4c5c;
      }

      .c {
        fill: gray;
      }

      .d {
        opacity: .25;
      }
    </style>
  </defs>
  <g>
    <polygon class="b" points="136.11 81.66 163.33 0 81.66 27.22 122.5 40.83 136.11 81.66"/>
    <polygon class="c" points="112.29 112.29 81.66 122.49 142.91 142.91 122.49 81.66 112.29 112.29"/>
    <polygon class="b" points="102.08 102.08 108.88 81.66 102.08 61.25 81.66 54.44 61.25 61.25 54.44 81.66 61.25 102.08 81.66 108.88 102.08 102.08"/>
    <polygon class="b" points="27.22 81.66 0 163.33 81.66 136.11 40.83 122.49 27.22 81.66"/>
    <polygon class="c" points="51.04 51.04 81.66 40.83 20.42 20.42 40.83 81.66 51.04 51.04"/>
  </g>
  <g>
    <polygon class="d" points="163.33 0 122.49 40.83 136.11 81.66 163.33 0"/>
    <polygon class="d" points="40.83 122.5 0 163.33 81.66 136.11 40.83 122.5"/>
  </g>
  <g>
    <polygon class="d" points="20.42 20.42 51.04 51.04 81.66 40.83 20.42 20.42"/>
    <polygon class="d" points="112.29 112.29 142.91 142.91 122.49 81.66 112.29 112.29"/>
  </g>
</svg>