<?xml version="1.0" encoding="UTF-8"?>
<svg id="a" data-name="todoiwa"
  xmlns="http://www.w3.org/2000/svg" width="512" height="512" viewBox="0 0 512 512">
  <defs>
    <style>
      .b {
        fill: #fff;
      }
    </style>
  </defs>
  <path class="b" d="m376.92,356.47l12.16,4.09-3.09,9.19-15.02-5.05,11.87,23.91-8.69,4.31-11.96-24.1-5.15,15.29-9.19-3.09,8.24-24.49-.12-.25c-36.6-.04-27.2-4.23-59.37,14.48l1.42,7.02-9.51,1.92-.8-3.95-8.9,5h-4.45l-3.75,5.65-8.08-5.37.19-.29h-20.12l-.06.37c-1.23-.59-15.01-.31-16.67-.37l5.59,14.26-12.65,4.96-6.49-16.54-11.08,13.89-10.62-8.48,6.45-8.09H60.73l-15.71-13.09c-.25,16.28,3.26,31.9,10.77,45.52l38.34-8.85-11.51,37.63c36.23,23.42,89.97,17.36,132.19-16.03,26.64,46.78,74.19,72.52,116.56,64.38l3.43-39.2,32.24,22.57c30.47-24.78,42.18-70.91,29.92-117.07l-20.04-.17Zm-77.15,73.12l-7.01,6.54-8.56-9.17-3.66,12-9.17-2.8,3.66-11.99-12.22,2.83-2.16-9.34,12.22-2.83-8.56-9.17,7.01-6.54,8.56,9.17,3.66-12,9.17,2.8-3.66,11.99,12.22-2.83,2.16,9.34-12.22,2.83,8.56,9.17Zm-157.84-122.04l-91.91,28.71c5.67-18.87,16.09-37.47,30.98-53.81-44.81-29.84-67.17-79.07-56.09-120.77l39.35-.69-20.27-33.73c29.49-31.49,83.09-38.61,132.14-16.43,14.53-51.83,54.44-88.32,97.52-90.67l12.81,37.21,25.82-29.7c39.06,18.31,62.4,67.09,56.46,120.6,53.79-2.2,100.82,24.49,116.36,64.73l-31.43,23.68,36.22,15.38c-2.74,21.9-14.34,42.34-32.07,58.55l-2.3-3.06h-27.84l-2.76-6.33,15.32.96.61-9.68-20.29-1.28-1.89-4.33,7.42-6.54-6.41-7.28-5.08,4.48-21.11-48.43,4.07-.82-1.92-9.51-6.12,1.23-3.33-7.63,8.52-12.82-8.08-5.37-5.05,7.6-9.2-21.09h-25.78l-27.45-49.49h-34.54c-1.49,1.37-48.43,136.66-51.44,136.8l.73.83-3.83,10.41-13.07-.82-.61,9.68,10.18.64-6.92,18.79h-77.72Zm250.72,35.47c25.75-5.31,48.25-16.94,65.18-32.41l35.2,46.82-96.07-.8c-1.21-4.54-2.64-9.08-4.31-13.61Zm-342.63-6.76c-3.16,10.51-4.83,21.09-5,31.41l-26.06-21.71,31.05-9.7Zm314.85,16.15l12.05,4.05-20.95-.17-7.26-14.63-4.76,14.14-11.49-3.87,8.63-25.63-10.33-20.81-6.12-.38-12.98,19.54,5.29,26.22-11.88,2.4-2.89-14.34-9.19,13.84,3.63,18.02-8.89,4.99-2.34-11.58-11.01,16.58h-11.65l14.7-22.12-15.81,3.19-1.92-9.51,25.32-5.11,9.19-13.83-14.63,2.95-2.39-11.89,26.51-5.34,12.86-19.36-2.73-5.49-23.4-1.47-20.07,17.69-8.02-9.09,10.97-9.68-16.58-1.04-19.16,16.89-6.42-7.27,11.88-10.48-16.46-1.04,3.5-9.5,13.77.87-9.94-11.27.8-2.18,5.74-5.06,17.08,19.37,16.58,1.04-9.87-11.19,9.09-8.02,17.88,20.28,23.11,1.45,3.35-5.37-10.29-20.74-25.36-8.53,3.87-11.49,13.87,4.67-7.39-14.88-24.21-8.15,3.09-9.19,15.02,5.05-11.87-23.91,8.69-4.31,11.96,24.1,5.15-15.29,9.19,3.09-8.24,24.49,7.39,14.88,4.76-14.14,11.49,3.87-8.63,25.63,10.45,21.04,5.96.22,13.02-19.6-5.29-26.22,11.88-2.4,2.89,14.34,9.19-13.84-5.05-25.04,9.51-1.92,3.13,15.53,9.72-14.63,4.61,10.58-6.37,9.59,9.7-1.96,3.96,9.09-21.25,4.29-9.19,13.83,14.63-2.95,2.4,11.88-26.51,5.35-12.86,19.36,2.73,5.49,23.4,1.47,20.07-17.69,8.02,9.09-10.97,9.67,16.58,1.04,14.08-12.41,4.07,9.34-4.46,3.93,6.35.4,4.36,9.99-11.52-.72,10.67,12.1-7.28,6.41-17.08-19.38-16.58-1.04,9.87,11.19-9.09,8.02-17.88-20.28-23.2-1.46-3.39,5.11,10.43,21,25.36,8.53-3.87,11.49-13.87-4.67,7.39,14.88Zm-120.3,15.28l-1.97,13.07c-1.22.42-16-2.1-17.63-2.29l.9,2.29h-28.8l4.63-5.8-17.57-2.65,2.03-13.44,17.57,2.65-6.49-16.54,12.65-4.96,6.49,16.54,11.08-13.89,10.62,8.48-11.08,13.89,17.57,2.65Z"/>
</svg>