<?xml version="1.0" encoding="UTF-8"?>
<svg id="a" data-name="logo" xmlns="http://www.w3.org/2000/svg" width="690" height="164" viewBox="0 0 690 164">
  <defs>
    <style>
      .b {
        fill: #fff;
      }
    </style>
  </defs>
  <g>
    <path class="b" d="m.27,40.89h24.3v11.14h.34c6.55-13.52,27.64-16.1,39.5-10.21,23.47,11.44,12.37,59.8,14.85,81.1h-25.32v-40.17c.27-9.09-.97-22.23-13.16-21.6-12.17-.74-15.72,10.92-15.19,20.93,0,0,0,40.84,0,40.84H.27V40.89Z"/>
    <path class="b" d="m97.15,40.89h25.32v13.16h.34c6.11-12.86,18.62-17.51,32.07-14.35v23.12c-43.69-11.75-30.33,34.23-32.41,60.09h-25.32V40.89Z"/>
    <path class="b" d="m212.26,65.03c-7.58-12.08-33.14-6.28-20.85,4.3,8.43,3.78,20.14,3.85,28.52,8.86,11.46,5.35,14.2,22.77,7.6,32.83-13.73,18.83-50.45,18.22-66.58,2.79l15.36-17.05c6.87,13.12,39.69,10.77,26.25-1.78-8.34-4.05-20.07-4.05-28.53-8.86-15.38-7.27-14.03-32.11-.34-40.68,15.63-9.95,40.51-9.17,54.09,4.22l-15.53,15.36Z"/>
    <path class="b" d="m291.25,136.25c-7.81,28.07-27.89,31.34-53.67,24.14l3.38-20.76c17.67,6.62,25.39,1.18,30.55-16.03l-35.95-82.7h27.34l21.1,54.18h.34l18.06-54.18h25.99l-37.13,95.36Z"/>
    <g>
      <path class="b" d="m327.46,108.4c-.15-20.36,31.21-20.36,31.06,0,.15,20.37-31.21,20.36-31.06,0Z"/>
      <path class="b" d="m402.57,128.99c1.49,26.84-16.93,39.27-42.2,33.08l1.35-22.45c7.81,4.49,15.81-1.01,15.36-9.79.11-1.91.17-3.66.17-5.23V40.89h25.32v88.11Zm-27.34-113.93c-.02-19.22,29.39-19.22,29.37,0,.02,19.22-29.39,19.22-29.37,0Z"/>
      <path class="b" d="m423.16,40.89h23.29v10.8h.34c22.92-29.01,68.14-5.28,65.48,29.54.41,21.39-14.29,44.21-37.47,43.71-10-.11-19.96-2.51-25.99-10.8h-.34v47.26h-25.32V40.89Zm23.29,41.02c-1.17,27.72,41.68,27.71,40.51,0,1.17-27.72-41.68-27.71-40.51,0Z"/>
    </g>
    <g>
      <g>
        <path class="b" d="m16.18,7.92c-1.94-2.48-8.19-2.84-8.6,1.02,1.29,4.96,9.66,2.87,11.92,7.7C24.98,28.26,7.46,33.97.27,26.24l4.38-4.82c2.01,4.2,12.75,3.07,8.67-2.27-3.34-2.35-8.76-2.11-11.17-5.94C-3.19,2.41,13.32-3.64,20.4,3.3l-4.23,4.62Z"/>
        <path class="b" d="m23.52,15.06c-.93-19.33,31.09-19.33,30.16,0,.93,19.33-31.09,19.33-30.16,0Zm6.4,0c-.67,11.77,18.04,11.77,17.37,0,.66-11.77-18.03-11.77-17.37,0Z"/>
        <path class="b" d="m57.86,1.09h9.31l6.43,18.24h.08l6.47-18.24h9.28v27.95h-6.16V7.6h-.08l-7.34,21.43h-4.7l-7.06-21.43h-.08v21.43h-6.16V1.09Z"/>
        <path class="b" d="m95.36,1.09h18.99v5.68h-12.83v5.21h12.12v5.68h-12.12v5.68h13.54v5.68h-19.69V1.09Z"/>
        <path class="b" d="m119.99,1.09h9.31l6.43,18.24h.08l6.47-18.24h9.28v27.95h-6.16V7.6h-.08l-7.34,21.43h-4.7l-7.06-21.43h-.08v21.43h-6.16V1.09Z"/>
        <path class="b" d="m157.17,1.09h6.16v27.95h-6.16V1.09Z"/>
        <path class="b" d="m175.8,17.12l-10.5-16.03h7.66l5.92,10.46,6.28-10.46h7.3l-10.5,16.03v11.92h-6.16v-11.92Z"/>
        <path class="b" d="m203.71,1.09h5.09l12.16,27.95h-6.95l-2.41-5.92h-10.85l-2.33,5.92h-6.79l12.08-27.95Zm2.37,8.13l-3.39,8.68h6.83l-3.43-8.68Z"/>
      </g>
      <g>
        <path class="b" d="m235.55,1.09h8.37l11.88,19.42h.08V1.09h6.16v27.95h-8.05l-12.19-19.89h-.08v19.89h-6.16V1.09Z"/>
        <path class="b" d="m267.96,1.09h18.99v5.68h-12.83v5.21h12.12v5.68h-12.12v5.68h13.54v5.68h-19.69V1.09Z"/>
        <path class="b" d="m292.51,1.09h6.16v27.95h-6.16V1.09Z"/>
        <path class="b" d="m304.27,1.09c4.83.34,14.07-1.11,18.22,1.8,5.17,3.45,3.88,13.53-2.9,14.35l7.11,11.8h-7.38l-5.84-11.17h-3.04v11.17h-6.16V1.09Zm6.16,11.57c2.81-.29,8.72,1.24,8.8-3.12-.04-4.35-5.99-3.01-8.8-3.24v6.36Z"/>
        <path class="b" d="m328.35,15.06c-.93-19.33,31.09-19.33,30.16,0,.93,19.33-31.09,19.33-30.16,0Zm6.4,0c-.67,11.77,18.04,11.77,17.37,0,.66-11.77-18.03-11.77-17.37,0Z"/>
      </g>
    </g>
  </g>
  <polygon class="b" points="629.19 102.32 635.99 81.9 629.19 61.49 608.77 54.68 588.36 61.49 581.55 81.9 588.36 102.32 608.77 109.12 629.19 102.32"/>
  <g>
    <polygon class="b" points="608.77 27.46 648.54 40.72 688.32 .95 608.77 27.46"/>
    <polygon class="b" points="689.73 2.36 649.96 42.13 663.21 81.9 689.73 2.36"/>
  </g>
  <g>
    <polygon class="b" points="608.77 41.07 548.59 21.01 578.68 51.1 608.77 41.07"/>
    <polygon class="b" points="567.94 81.9 577.97 51.81 547.88 21.72 567.94 81.9"/>
  </g>
  <g>
    <polygon class="b" points="608.95 122.91 669.14 142.97 639.04 112.88 608.95 122.91"/>
    <polygon class="b" points="649.78 82.08 639.75 112.17 669.84 142.27 649.78 82.08"/>
  </g>
  <g>
    <polygon class="b" points="608.42 136.7 568.65 123.44 528.88 163.21 608.42 136.7"/>
    <polygon class="b" points="527.46 161.8 567.23 122.03 553.98 82.26 527.46 161.8"/>
  </g>
</svg>